<svg width="234" height="224" viewBox="0 0 234 224" fill="none" xmlns="http://www.w3.org/2000/svg">
<path d="M168.829 224H56.6184L55.7632 223.463V177.661L56.1053 176.588V172.294L56.4474 171.22V168.358L56.7895 167.284V165.853L57.1316 164.78V161.917L57.4737 160.843L57.6447 159.591L57.8158 158.339L57.9868 157.086L58.1579 155.834L58.3289 154.581L58.5 153.329L58.8421 152.256V150.824L59.1842 149.751L59.5263 148.677V147.246L59.8684 146.173L60.2105 145.099L60.3816 143.847L60.5526 142.594L60.8947 141.521L61.2368 140.447L61.5789 139.374L61.9211 138.3L62.0921 137.048L62.4342 135.974L62.6053 134.722L62.9474 133.649L63.2895 132.575L63.6316 131.502L63.9737 130.428L64.3158 129.355L64.6579 128.281L65 127.208L65.3421 126.134L65.6842 125.061L66.0263 123.987L66.3684 122.914L66.5395 122.019H0.855263L0 121.482V4.11502L0.513158 3.22045H112.724L113.921 3.39936V47.77L114.605 48.1278L115.289 47.4121L115.974 46.6965L116.658 45.9808L117.513 45.4441L118.197 44.7284L118.882 44.0128L119.737 43.476L120.421 42.7604L121.105 42.0447L121.961 41.508L122.645 40.7923L123.329 40.0767L124.184 39.5399L125.039 39.0032L125.724 38.2875L126.579 37.7508L127.263 37.0351L128.118 36.4984L128.803 35.7827L129.658 35.246L130.513 34.7093L131.197 33.9936L132.053 33.4569L132.908 32.9201L133.763 32.3834L134.618 31.8466L135.303 31.131L136.158 30.5942L137.013 30.0575L137.697 29.3419L138.553 28.8051L139.408 28.2684L140.434 27.9105L141.118 27.1949L141.974 26.6581L142.829 26.1214L143.684 25.5847L144.539 25.0479L145.395 24.5112L146.25 23.9744L147.276 23.6166L148.132 23.0799L148.987 22.5431L149.842 22.0064L150.697 21.4696L151.724 21.1118L152.579 20.5751L153.434 20.0383L154.461 19.6805L155.316 19.1438L156.171 18.607L157.197 18.2492L158.053 17.7125L158.908 17.1757L159.934 16.8179L160.961 16.4601L161.816 15.9233L162.842 15.5655L163.697 15.0288L164.724 14.6709L165.579 14.1342L166.605 13.7764L167.461 13.2396L168.487 12.8818L169.513 12.524L170.539 12.1661L171.566 11.8083L172.592 11.4505L173.618 11.0927L174.645 10.7348L175.671 10.377L176.697 10.0192L177.724 9.66134L178.579 9.1246L179.605 8.76677L180.632 8.40895L181.658 8.05112L182.855 7.8722L183.882 7.51438L184.908 7.15655L185.934 6.79872L186.961 6.44089L187.987 6.08307L189.184 5.90415L190.382 5.72524L191.408 5.36741L192.434 5.00958L193.632 4.83067L194.829 4.65176L195.855 4.29393L196.882 3.9361L198.079 3.75719L199.276 3.57827L200.303 3.22045L201.5 3.04153L202.697 2.86262L203.724 2.50479H205.092L206.118 2.14696L207.145 1.78914H208.513L209.539 1.43131H210.908L212.105 1.2524L213.303 1.07348H214.671L215.526 0.894569L216.382 0.715655H219.118L220.145 0.357827H224.25L225.447 0.178914L226.645 0H233.487L234 0.894569V118.262L233.145 118.799H227.671L226.645 119.157H225.276L224.25 119.514H222.882L221.855 119.872L220.658 120.051L219.461 120.23L218.434 120.588L217.408 120.946L216.382 121.304L215.355 121.661L214.329 122.019L213.303 122.377L212.276 122.735L211.25 123.093L210.224 123.45L209.197 123.808L208.171 124.166L207.316 124.703L206.461 125.24L205.434 125.597L204.579 126.134L203.724 126.671L202.697 127.029L202.013 127.744L200.987 128.102L200.303 128.818L199.276 129.176L198.592 129.891L197.737 130.428L196.882 130.965L196.026 131.502L195.342 132.217L194.487 132.754L193.803 133.47L192.947 134.006L192.263 134.722L191.579 135.438L190.724 135.974L190.039 136.69L189.355 137.406L188.671 138.121L187.987 138.837L187.303 139.553L186.618 140.268L185.934 140.984L185.421 141.879L184.737 142.594L184.053 143.31L183.539 144.204L182.855 144.92L182.342 145.815L181.658 146.53L181.145 147.425L180.632 148.319L179.947 149.035L179.434 149.93L178.921 150.824L178.408 151.719L177.895 152.613L177.382 153.508L176.868 154.403L176.526 155.476L175.842 156.192L175.5 157.265L175.158 158.339L174.645 159.233L174.303 160.307L173.789 161.201L173.447 162.275L173.105 163.348L172.763 164.422L172.421 165.495L172.079 166.569L171.737 167.642L171.395 168.716L171.053 169.789L170.711 170.863V172.294L170.368 173.367L170.197 174.62L170.026 175.872L169.684 176.946V179.808L169.342 180.882V185.176L169.171 186.428L169 187.681V223.463L168.829 224Z" fill="#111111"/>
</svg>
