<svg xmlns="http://www.w3.org/2000/svg" viewBox="0 0 968 864" width="968" height="864">
  <path d="M 662 742.5 L 658 742.5 L 654 742.5 L 650 742.5 L 646 742.5 L 642 742.5 L 638 742.5 L 634 742.5 L 630 742.5 L 626 742.5 L 622 742.5 L 618 742.5 L 614 742.5 L 610 742.5 L 606 742.5 L 602 742.5 L 598 742.5 L 594 742.5 L 590 742.5 L 586 742.5 L 582 742.5 L 578 742.5 L 574 742.5 L 570 742.5 L 566 742.5 L 562 742.5 L 558 742.5 L 554 742.5 L 550 742.5 L 546 742.5 L 542 742.5 L 538 742.5 L 534 742.5 L 530 742.5 L 526 742.5 L 522 742.5 L 518 742.5 L 514 742.5 L 510 742.5 L 506 742.5 L 502 742.5 L 498 742.5 L 494 742.5 L 490 742.5 L 486 742.5 L 482 742.5 L 478 742.5 L 474 742.5 L 470 742.5 L 466 742.5 L 462 742.5 L 458 742.5 L 454 742.5 L 450 742.5 L 446 742.5 L 442 742.5 L 438 742.5 L 434 742.5 L 430 742.5 L 426 742.5 L 422 742.5 L 418 742.5 L 414 742.5 L 410 742.5 L 406 742.5 L 402 742.5 L 398 742.5 L 394 742.5 L 390 742.5 L 386 742.5 L 382 742.5 L 378 742.5 L 374 742.5 L 370 742.5 L 366 742.5 L 362 742.5 L 358 742.5 L 354 742.5 L 350 742.5 L 346 742.5 L 342 742.5 L 338 742.5 L 334 742.5 L 331.5 741 L 331.5 737 L 331.5 733 L 331.5 729 L 331.5 725 L 331.5 721 L 331.5 717 L 331.5 713 L 331.5 709 L 331.5 705 L 331.5 701 L 331.5 697 L 331.5 693 L 331.5 689 L 331.5 685 L 331.5 681 L 331.5 677 L 331.5 673 L 331.5 669 L 331.5 665 L 331.5 661 L 331.5 657 L 331.5 653 L 331.5 649 L 331.5 645 L 331.5 641 L 331.5 637 L 331.5 633 L 331.5 629 L 331.5 625 L 331.5 621 L 331.5 617 L 331.5 613 L 332.5 610 L 332.5 606 L 332.5 602 L 332.5 598 L 333.5 595 L 333.5 591 L 333.5 587 L 334.5 584 L 334.5 580 L 335.5 577 L 335.5 573 L 335.5 569 L 336.5 566 L 337 562.5 L 337.5 559 L 338 555.5 L 338.5 552 L 339 548.5 L 339.5 545 L 340.5 542 L 340.5 538 L 341.5 535 L 342.5 532 L 342.5 528 L 343.5 525 L 344.5 522 L 345 518.5 L 345.5 515 L 346.5 512 L 347.5 509 L 348.5 506 L 349.5 503 L 350 499.5 L 351 496.5 L 351.5 493 L 352.5 490 L 353.5 487 L 354.5 484 L 355.5 481 L 356.5 478 L 357.5 475 L 358.5 472 L 359.5 469 L 360.5 466 L 361.5 463 L 362.5 460 L 363 457.5 L 359 457.5 L 355 457.5 L 351 457.5 L 347 457.5 L 343 457.5 L 339 457.5 L 335 457.5 L 331 457.5 L 327 457.5 L 323 457.5 L 319 457.5 L 315 457.5 L 311 457.5 L 307 457.5 L 303 457.5 L 299 457.5 L 295 457.5 L 291 457.5 L 287 457.5 L 283 457.5 L 279 457.5 L 275 457.5 L 271 457.5 L 267 457.5 L 263 457.5 L 259 457.5 L 255 457.5 L 251 457.5 L 247 457.5 L 243 457.5 L 239 457.5 L 235 457.5 L 231 457.5 L 227 457.5 L 223 457.5 L 219 457.5 L 215 457.5 L 211 457.5 L 207 457.5 L 203 457.5 L 199 457.5 L 195 457.5 L 191 457.5 L 187 457.5 L 183 457.5 L 179 457.5 L 175 457.5 L 171 457.5 L 168.5 456 L 168.5 452 L 168.5 448 L 168.5 444 L 168.5 440 L 168.5 436 L 168.5 432 L 168.5 428 L 168.5 424 L 168.5 420 L 168.5 416 L 168.5 412 L 168.5 408 L 168.5 404 L 168.5 400 L 168.5 396 L 168.5 392 L 168.5 388 L 168.5 384 L 168.5 380 L 168.5 376 L 168.5 372 L 168.5 368 L 168.5 364 L 168.5 360 L 168.5 356 L 168.5 352 L 168.5 348 L 168.5 344 L 168.5 340 L 168.5 336 L 168.5 332 L 168.5 328 L 168.5 324 L 168.5 320 L 168.5 316 L 168.5 312 L 168.5 308 L 168.5 304 L 168.5 300 L 168.5 296 L 168.5 292 L 168.5 288 L 168.5 284 L 168.5 280 L 168.5 276 L 168.5 272 L 168.5 268 L 168.5 264 L 168.5 260 L 168.5 256 L 168.5 252 L 168.5 248 L 168.5 244 L 168.5 240 L 168.5 236 L 168.5 232 L 168.5 228 L 168.5 224 L 168.5 220 L 168.5 216 L 168.5 212 L 168.5 208 L 168.5 204 L 168.5 200 L 168.5 196 L 168.5 192 L 168.5 188 L 168.5 184 L 168.5 180 L 168.5 176 L 168.5 172 L 168.5 168 L 168.5 164 L 168.5 160 L 168.5 156 L 168.5 152 L 168.5 148 L 168.5 144 L 168.5 140 L 168.5 136 L 168.5 132 L 168.5 128 L 170 125.5 L 174 125.5 L 178 125.5 L 182 125.5 L 186 125.5 L 190 125.5 L 194 125.5 L 198 125.5 L 202 125.5 L 206 125.5 L 210 125.5 L 214 125.5 L 218 125.5 L 222 125.5 L 226 125.5 L 230 125.5 L 234 125.5 L 238 125.5 L 242 125.5 L 246 125.5 L 250 125.5 L 254 125.5 L 258 125.5 L 262 125.5 L 266 125.5 L 270 125.5 L 274 125.5 L 278 125.5 L 282 125.5 L 286 125.5 L 290 125.5 L 294 125.5 L 298 125.5 L 302 125.5 L 306 125.5 L 310 125.5 L 314 125.5 L 318 125.5 L 322 125.5 L 326 125.5 L 330 125.5 L 334 125.5 L 338 125.5 L 342 125.5 L 346 125.5 L 350 125.5 L 354 125.5 L 358 125.5 L 362 125.5 L 366 125.5 L 370 125.5 L 374 125.5 L 378 125.5 L 382 125.5 L 386 125.5 L 390 125.5 L 394 125.5 L 398 125.5 L 402 125.5 L 406 125.5 L 410 125.5 L 414 125.5 L 418 125.5 L 422 125.5 L 426 125.5 L 430 125.5 L 434 125.5 L 438 125.5 L 442 125.5 L 446 125.5 L 450 125.5 L 454 125.5 L 458 125.5 L 462 125.5 L 466 125.5 L 470 125.5 L 474 125.5 L 478 125.5 L 482 125.5 L 486 125.5 L 490 125.5 L 494 125.5 L 498 125.5 L 501.5 126 L 501.5 130 L 501.5 134 L 501.5 138 L 501.5 142 L 501.5 146 L 501.5 150 L 501.5 154 L 501.5 158 L 501.5 162 L 501.5 166 L 501.5 170 L 501.5 174 L 501.5 178 L 501.5 182 L 501.5 186 L 501.5 190 L 501.5 194 L 501.5 198 L 501.5 202 L 501.5 206 L 501.5 210 L 501.5 214 L 501.5 218 L 501.5 222 L 501.5 226 L 501.5 230 L 501.5 234 L 501.5 238 L 501.5 242 L 501.5 246 L 501.5 250 L 503.5 251 L 505.5 249 L 507.5 247 L 509.5 245 L 512 243.5 L 514 241.5 L 516 239.5 L 518.5 238 L 520.5 236 L 522.5 234 L 525 232.5 L 527 230.5 L 529 228.5 L 531.5 227 L 534 225.5 L 536 223.5 L 538.5 222 L 540.5 220 L 543 218.5 L 545 216.5 L 547.5 215 L 550 213.5 L 552 211.5 L 554.5 210 L 557 208.5 L 559.5 207 L 562 205.5 L 564 203.5 L 566.5 202 L 569 200.5 L 571 198.5 L 573.5 197 L 576 195.5 L 579 194.5 L 581 192.5 L 583.5 191 L 586 189.5 L 588.5 188 L 591 186.5 L 593.5 185 L 596 183.5 L 599 182.5 L 601.5 181 L 604 179.5 L 606.5 178 L 609 176.5 L 612 175.5 L 614.5 174 L 617 172.5 L 620 171.5 L 622.5 170 L 625 168.5 L 628 167.5 L 630.5 166 L 633 164.5 L 636 163.5 L 639 162.5 L 641.5 161 L 644.5 160 L 647 158.5 L 650 157.5 L 652.5 156 L 655.5 155 L 658 153.5 L 661 152.5 L 664 151.5 L 667 150.5 L 670 149.5 L 673 148.5 L 676 147.5 L 679 146.5 L 682 145.5 L 685 144.5 L 688 143.5 L 690.5 142 L 693.5 141 L 696.5 140 L 699.5 139 L 703 138.5 L 706 137.5 L 709 136.5 L 712 135.5 L 715 134.5 L 718 133.5 L 721.5 133 L 725 132.5 L 728 131.5 L 731 130.5 L 734.5 130 L 738 129.5 L 741 128.5 L 744 127.5 L 747.5 127 L 751 126.5 L 754 125.5 L 757.5 125 L 761 124.5 L 764 123.5 L 768 123.5 L 771 122.5 L 774 121.5 L 778 121.5 L 781 120.5 L 785 120.5 L 788.5 120 L 792 119.5 L 796 119.5 L 798.5 119 L 801 118.5 L 805 118.5 L 809 118.5 L 812 117.5 L 816 117.5 L 820 117.5 L 824 117.5 L 827.5 117 L 831 116.5 L 835 116.5 L 839 116.5 L 843 116.5 L 847 116.5 L 851 116.5 L 852.5 119 L 852.5 123 L 852.5 127 L 852.5 131 L 852.5 135 L 852.5 139 L 852.5 143 L 852.5 147 L 852.5 151 L 852.5 155 L 852.5 159 L 852.5 163 L 852.5 167 L 852.5 171 L 852.5 175 L 852.5 179 L 852.5 183 L 852.5 187 L 852.5 191 L 852.5 195 L 852.5 199 L 852.5 203 L 852.5 207 L 852.5 211 L 852.5 215 L 852.5 219 L 852.5 223 L 852.5 227 L 852.5 231 L 852.5 235 L 852.5 239 L 852.5 243 L 852.5 247 L 852.5 251 L 852.5 255 L 852.5 259 L 852.5 263 L 852.5 267 L 852.5 271 L 852.5 275 L 852.5 279 L 852.5 283 L 852.5 287 L 852.5 291 L 852.5 295 L 852.5 299 L 852.5 303 L 852.5 307 L 852.5 311 L 852.5 315 L 852.5 319 L 852.5 323 L 852.5 327 L 852.5 331 L 852.5 335 L 852.5 339 L 852.5 343 L 852.5 347 L 852.5 351 L 852.5 355 L 852.5 359 L 852.5 363 L 852.5 367 L 852.5 371 L 852.5 375 L 852.5 379 L 852.5 383 L 852.5 387 L 852.5 391 L 852.5 395 L 852.5 399 L 852.5 403 L 852.5 407 L 852.5 411 L 852.5 415 L 852.5 419 L 852.5 423 L 852.5 427 L 852.5 431 L 852.5 435 L 852.5 439 L 852.5 443 L 852.5 447 L 850 448.5 L 846 448.5 L 842 448.5 L 838 448.5 L 834 448.5 L 831 449.5 L 827 449.5 L 824 450.5 L 820 450.5 L 817 451.5 L 813.5 452 L 810 452.5 L 807 453.5 L 804 454.5 L 801 455.5 L 798 456.5 L 795 457.5 L 792 458.5 L 789 459.5 L 786 460.5 L 783 461.5 L 780 462.5 L 777 463.5 L 774.5 465 L 772 466.5 L 769 467.5 L 766.5 469 L 764 470.5 L 761 471.5 L 759 473.5 L 756 474.5 L 754 476.5 L 751 477.5 L 749 479.5 L 746.5 481 L 744 482.5 L 741.5 484 L 739.5 486 L 737 487.5 L 735 489.5 L 732.5 491 L 730.5 493 L 728.5 495 L 726 496.5 L 724 498.5 L 722 500.5 L 720 502.5 L 718 504.5 L 716 506.5 L 714 508.5 L 712 510.5 L 710.5 513 L 708.5 515 L 706.5 517 L 705 519.5 L 703 521.5 L 701.5 524 L 699.5 526 L 698 528.5 L 696.5 531 L 694.5 533 L 693 535.5 L 691.5 538 L 690 540.5 L 688.5 543 L 687 545.5 L 685.5 548 L 684.5 551 L 682.5 553 L 681.5 556 L 680.5 559 L 679 561.5 L 678 564.5 L 676.5 567 L 675.5 570 L 674.5 573 L 673.5 576 L 672.5 579 L 671.5 582 L 670.5 585 L 669.5 588 L 668.5 591 L 667.5 594 L 667.5 598 L 666.5 601 L 666 604.5 L 665.5 608 L 664.5 611 L 664.5 615 L 664.5 619 L 663.5 622 L 663.5 626 L 663.5 630 L 663.5 634 L 663 637.5 L 662.5 641 L 662.5 645 L 662.5 649 L 662.5 653 L 662.5 657 L 662.5 661 L 662.5 665 L 662.5 669 L 662.5 673 L 662.5 677 L 662.5 681 L 662.5 685 L 662.5 689 L 662.5 693 L 662.5 697 L 662.5 701 L 662.5 705 L 662.5 709 L 662.5 713 L 662.5 717 L 662.5 721 L 662.5 725 L 662.5 729 L 662.5 733 L 662.5 737 L 662.5 741 L 662 742.5 Z" fill="#111111"/>
</svg>